<svg width="96" height="96" xmlns="http://www.w3.org/2000/svg" xmlns:xlink="http://www.w3.org/1999/xlink" xml:space="preserve" overflow="hidden"><g transform="translate(-609 -84)"><path d="M697 123 693 123 693 112C693 109.8 691.2 108 689 108L617 108C614.8 108 613 109.8 613 112L613 152C613 154.2 614.8 156 617 156L689 156C691.2 156 693 154.2 693 152L693 141 697 141C699.2 141 701 139.2 701 137L701 127C701 124.8 699.2 123 697 123ZM687 150 619 150 619 114 687 114 687 150Z"/><path d="M623 118 683 118 683 146 623 146Z"/></g></svg>