<svg width="96" height="96" xmlns="http://www.w3.org/2000/svg" xmlns:xlink="http://www.w3.org/1999/xlink" xml:space="preserve" overflow="hidden"><g transform="translate(-482 -84)"><path d="M570 123 566 123 566 112C566 109.8 564.2 108 562 108L490 108C487.8 108 486 109.8 486 112L486 152C486 154.2 487.8 156 490 156L562 156C564.2 156 566 154.2 566 152L566 141 570 141C572.2 141 574 139.2 574 137L574 127C574 124.8 572.2 123 570 123ZM560 150 492 150 492 114 560 114 560 150Z"/><path d="M496 118 504 118 504 146 496 146Z"/></g></svg>