<svg width="132" height="132" xmlns="http://www.w3.org/2000/svg" xmlns:xlink="http://www.w3.org/1999/xlink" xml:space="preserve" overflow="hidden"><g transform="translate(-65 -333)"><path d="M173.625 382.5C175.144 382.5 176.375 381.269 176.375 379.75L176.375 372.875C176.375 371.797 175.745 370.818 174.764 370.371L144.513 356.621C144.305 356.53 144.086 356.465 143.862 356.427L143.357 351.943C143.306 351.487 143.142 351.05 142.879 350.673L133.254 336.923C132.383 335.678 130.669 335.375 129.424 336.245 129.16 336.43 128.931 336.659 128.746 336.923L119.121 350.673C118.858 351.05 118.694 351.487 118.643 351.943L118.138 356.427C117.914 356.464 117.695 356.529 117.486 356.621L87.2365 370.371C86.2549 370.818 85.6247 371.797 85.625 372.875L85.625 379.75C85.625 381.269 86.8562 382.5 88.375 382.5 89.8938 382.5 91.125 381.269 91.125 379.75L91.125 375.625 115.986 375.625 114.574 388.198 87.242 400.621C86.2582 401.066 85.6257 402.045 85.625 403.125L85.625 410C85.625 411.519 86.8562 412.75 88.375 412.75 89.8938 412.75 91.125 411.519 91.125 410L91.125 405.875 112.587 405.875 111.815 412.76 93.6302 458.263C93.0665 459.673 93.7526 461.273 95.1628 461.837 95.8385 462.107 96.5937 462.098 97.263 461.813L130.933 447.456 164.803 461.91C166.2 462.507 167.816 461.859 168.413 460.463 168.699 459.793 168.708 459.036 168.437 458.36L150.196 412.761 149.425 405.875 170.875 405.875 170.875 410C170.875 411.519 172.106 412.75 173.625 412.75 175.144 412.75 176.375 411.519 176.375 410L176.375 403.125C176.375 402.047 175.745 401.068 174.764 400.621L147.437 388.198 146.023 375.625 170.875 375.625 170.875 379.75C170.875 381.269 172.106 382.5 173.625 382.5ZM123.066 361.875 138.945 361.875 139.871 370.125 122.134 370.125ZM131 343.296 137.97 353.252 138.326 356.375 123.684 356.375 124.036 353.252ZM101.076 370.125 117.438 362.686 116.605 370.125ZM143.271 400.375 118.741 400.375 119.667 392.125 142.344 392.125ZM101.076 400.375 113.863 394.564 113.206 400.375ZM146.262 417.744 150.042 427.188 137.652 421.619ZM150.167 433.273 130.933 441.477 111.714 433.273 130.944 424.631ZM111.997 427.115 115.722 417.792 124.231 421.616ZM101.19 454.157 107.811 437.589 123.92 444.464ZM137.938 444.467 154.185 437.541 160.869 454.253ZM144.624 412.452 130.939 418.602 117.374 412.504 118.122 405.875 143.889 405.875ZM160.935 400.375 148.805 400.375 148.152 394.564ZM141.725 386.625 120.285 386.625 121.522 375.625 140.488 375.625ZM144.57 362.686 160.935 370.125 145.406 370.125Z"/></g></svg>